<?xml version="1.0" encoding="UTF-8" standalone="no"?>
<!-- Generator: Adobe Illustrator 19.0.0, SVG Export Plug-In . SVG Version: 6.00 Build 0)  -->

<svg
   version="1.1"
   id="Layer_1"
   x="0px"
   y="0px"
   viewBox="0 0 539.06183 537.23486"
   xml:space="preserve"
   sodipodi:docname="pic.svg"
   width="539.06183"
   height="537.23486"
   inkscape:version="1.1.2 (b8e25be8, 2022-02-05)"
   xmlns:inkscape="http://www.inkscape.org/namespaces/inkscape"
   xmlns:sodipodi="http://sodipodi.sourceforge.net/DTD/sodipodi-0.dtd"
   xmlns="http://www.w3.org/2000/svg"
   xmlns:svg="http://www.w3.org/2000/svg"><defs
   id="defs47" /><sodipodi:namedview
   id="namedview45"
   pagecolor="#ffffff"
   bordercolor="#666666"
   borderopacity="1.0"
   inkscape:pageshadow="2"
   inkscape:pageopacity="0.0"
   inkscape:pagecheckerboard="0"
   showgrid="false"
   inkscape:zoom="1.2755102"
   inkscape:cx="182.672"
   inkscape:cy="243.432"
   inkscape:window-width="1840"
   inkscape:window-height="1009"
   inkscape:window-x="1520"
   inkscape:window-y="43"
   inkscape:window-maximized="0"
   inkscape:current-layer="XMLID_536_" />
<g
   id="XMLID_536_"
   transform="translate(26.352312,-1.8716899)">
	<path
   style="fill:#00ffff;stroke:#000000;stroke-width:10;stroke-linecap:round;stroke-dasharray:none;stroke-miterlimit:4"
   id="path151"
   sodipodi:type="arc"
   sodipodi:cx="243.17883"
   sodipodi:cy="270.48926"
   sodipodi:rx="269.03082"
   sodipodi:ry="268.11734"
   sodipodi:start="6.275279"
   sodipodi:end="6.2632886"
   sodipodi:open="true"
   sodipodi:arc-type="arc"
   d="M 512.20125,268.36945 A 269.03082,268.11734 0 0 1 246.11227,538.59066 269.03082,268.11734 0 0 1 -25.825995,274.21638 269.03082,268.11734 0 0 1 238.63266,2.4102015 269.03082,268.11734 0 0 1 512.15641,265.15495" /><g
   id="g11"
   transform="matrix(0.8144,0,0,0.8144,42.336,48.608)">
		<path
   d="M 260,150.168 V 110 h 109.271 l -27.5,-55 27.5,-55 H 230 V 150.168 L 2.821,466.145 0,470.167 V 490 h 475 l 15,-0.1 V 470.067 Z M 260,30 h 60.729 l -12.5,25 12.5,25 H 260 Z m -15,150.695 94.541,131.495 -36.1,24.595 L 245,296.771 186.559,336.785 150.459,312.19 Z M 44.188,460 l 88.753,-123.444 53.66,36.56 58.399,-39.987 58.399,39.986 53.66,-36.56 L 445.813,460 Z"
   id="path9" />
	</g>
</g>
<g
   id="g14"
   transform="translate(26.352312,-1.8716899)">
</g>
<g
   id="g16"
   transform="translate(26.352312,-1.8716899)">
</g>
<g
   id="g18"
   transform="translate(26.352312,-1.8716899)">
</g>
<g
   id="g20"
   transform="translate(26.352312,-1.8716899)">
</g>
<g
   id="g22"
   transform="translate(26.352312,-1.8716899)">
</g>
<g
   id="g24"
   transform="translate(26.352312,-1.8716899)">
</g>
<g
   id="g26"
   transform="translate(26.352312,-1.8716899)">
</g>
<g
   id="g28"
   transform="translate(26.352312,-1.8716899)">
</g>
<g
   id="g30"
   transform="translate(26.352312,-1.8716899)">
</g>
<g
   id="g32"
   transform="translate(26.352312,-1.8716899)">
</g>
<g
   id="g34"
   transform="translate(26.352312,-1.8716899)">
</g>
<g
   id="g36"
   transform="translate(26.352312,-1.8716899)">
</g>
<g
   id="g38"
   transform="translate(26.352312,-1.8716899)">
</g>
<g
   id="g40"
   transform="translate(26.352312,-1.8716899)">
</g>
<g
   id="g42"
   transform="translate(26.352312,-1.8716899)">
</g>
</svg>
